<svg width="100%" height="100%" viewBox="0 0 284 46" fill="none" preserveAspectRatio="xMidYMid meet" xmlns="http://www.w3.org/2000/svg">
<path d="M1.71276 35.1613C1.59575 35.1613 1.46973 35.1523 1.35271 35.1253C0.425561 34.9273 -0.159531 34.0182 0.0385005 33.091C0.110512 32.731 2.00081 24.3146 10.8672 19.6429C11.7043 19.2018 12.7395 19.5259 13.1806 20.363C13.6217 21.2001 13.2976 22.2353 12.4605 22.6764C9.36398 24.3056 6.89759 26.664 5.13331 29.6795C3.79209 31.9658 3.37803 33.7931 3.37803 33.8111C3.207 34.6123 2.49589 35.1613 1.71276 35.1613Z" fill="#7F52FF"/>
<path d="M37.7094 20.2009C37.0974 20.2009 36.5033 19.8679 36.1972 19.2828C35.7561 18.4457 36.0802 17.4105 36.9173 16.9694C40.0228 15.3312 42.5972 12.8198 44.5685 9.51625C46.0628 6.99585 46.6299 4.93453 46.6389 4.91652C46.8819 4.00738 47.8181 3.45829 48.7272 3.70133C49.6363 3.94437 50.1854 4.87152 49.9424 5.78966C49.8434 6.17672 47.332 15.3582 38.5106 20.0029C38.2495 20.1379 37.9795 20.2009 37.7094 20.2009Z" fill="#7F52FF"/>
<path d="M22.6683 45.1619H19.4818C18.5366 45.1619 17.7715 44.3968 17.7715 43.4516C17.7715 42.5065 18.5366 41.7414 19.4818 41.7414H20.3459C19.2207 37.5737 17.6185 28.8153 22.3352 23.9006C22.9923 23.2164 24.0725 23.1984 24.7566 23.8555C25.4407 24.5126 25.4587 25.5928 24.8016 26.2769C22.4162 28.7523 22.3622 33.019 22.7313 36.1605C23.1633 39.7971 24.2615 42.8306 24.2705 42.8576C24.4595 43.3796 24.3875 43.9647 24.0635 44.4238C23.7484 44.8919 23.2264 45.1619 22.6683 45.1619Z" fill="#7F52FF"/>
<path d="M39.1136 39.7881C38.6635 39.7881 38.2224 39.608 37.8894 39.275L24.9633 26.1059C24.2972 25.4308 24.3152 24.3506 24.9813 23.6845C25.6564 23.0184 26.7366 23.0364 27.4027 23.7025L39.4286 35.9535L41.1119 35.0533C41.94 34.6032 42.9842 34.9183 43.4252 35.7464C43.8753 36.5746 43.5603 37.6187 42.7321 38.0598L39.9237 39.572C39.6627 39.7251 39.3836 39.7881 39.1136 39.7881Z" fill="#7F52FF"/>
<path d="M13.5947 27.5551L36.7193 25.9349C38.5196 25.8088 39.8788 24.2426 39.7528 22.4423L38.4746 4.16041C38.2676 1.23494 34.811 -0.205284 32.5877 1.70302L24.6754 8.5261C24.2254 8.91316 23.5773 8.95817 23.0822 8.63412L14.3148 2.99022C11.8484 1.39697 8.61689 3.30527 8.82392 6.23974L10.1021 24.5216C10.2281 26.3219 11.7854 27.6811 13.5947 27.5551Z" fill="#7F52FF"/>
<path d="M35.5848 24.2606L14.5035 25.7188C13.1173 25.8178 11.9111 24.7646 11.8121 23.3784L11.173 14.044C11.0739 12.6577 12.1271 11.4515 13.5133 11.3525L34.5947 9.88529C35.9809 9.78628 37.1871 10.8394 37.2861 12.2257L37.9342 21.5601C38.0242 22.9554 36.971 24.1616 35.5848 24.2606Z" fill="black"/>
<path d="M23.2082 17.3295C22.9472 15.0161 20.9759 13.3058 18.6985 13.3058C18.5275 13.3058 18.3565 13.3148 18.1764 13.3329C15.6831 13.6209 13.8918 15.8713 14.1798 18.3556C14.4409 20.669 16.4122 22.3793 18.6895 22.3793C18.8606 22.3793 19.0316 22.3703 19.2116 22.3523C21.696 22.0732 23.4873 19.8229 23.2082 17.3295ZM20.9759 19.6609C20.4898 20.2729 19.7967 20.66 19.0226 20.741C18.9146 20.75 18.7975 20.759 18.6895 20.759C17.2043 20.759 15.9621 19.6429 15.7911 18.1666C15.611 16.5644 16.7632 15.1151 18.3655 14.9351C18.4735 14.9261 18.5905 14.9171 18.6985 14.9171C20.1838 14.9171 21.426 16.0333 21.597 17.5095C21.687 18.2836 21.462 19.0488 20.9759 19.6609Z" fill="white"/>
<path d="M23.6402 22.2713C24.6393 22.7844 26.0166 22.5774 26.7907 21.7582C27.0247 21.5062 27.2048 21.2001 27.2948 20.8671C27.3488 20.6601 27.2228 20.417 27.0157 20.372C26.7997 20.327 26.5837 20.435 26.5206 20.6511C26.5026 20.7051 26.4846 20.7591 26.4666 20.8221C26.4486 20.8671 26.4756 20.7861 26.4846 20.7861L26.4666 20.8221C26.4486 20.8491 26.4396 20.8761 26.4216 20.9031C26.3946 20.9571 26.3676 21.0021 26.3316 21.0471C26.3226 21.0561 26.3136 21.0651 26.3136 21.0831C26.3046 21.1101 26.2956 21.1101 26.3136 21.0831C26.3316 21.0561 26.3226 21.0561 26.3136 21.0831C26.3046 21.0921 26.2956 21.1101 26.2776 21.1191C26.2596 21.1371 26.0526 21.3712 26.0346 21.3532C26.0346 21.3532 26.0976 21.3082 26.0616 21.3262C26.0526 21.3352 26.0436 21.3442 26.0256 21.3532C25.9986 21.3712 25.9716 21.3892 25.9536 21.4072C25.9085 21.4342 25.8545 21.4702 25.8095 21.4972C25.7555 21.5242 25.7105 21.5512 25.6565 21.5782C25.6475 21.5782 25.6205 21.5962 25.6205 21.5962C25.6205 21.5962 25.7015 21.5692 25.6565 21.5782C25.6295 21.5872 25.6025 21.5962 25.5665 21.6142C25.4585 21.6502 25.3415 21.6862 25.2334 21.7042C25.2064 21.7132 25.1704 21.7132 25.1434 21.7222C25.1254 21.7222 25.0444 21.7492 25.1074 21.7312C25.1614 21.7132 25.0894 21.7312 25.0714 21.7312C25.0354 21.7312 24.9994 21.7402 24.9634 21.7402C24.8464 21.7492 24.7384 21.7402 24.6213 21.7312C24.5943 21.7312 24.5583 21.7132 24.5313 21.7222C24.5313 21.7222 24.6213 21.7402 24.5763 21.7312C24.5583 21.7312 24.5403 21.7222 24.5223 21.7222C24.4593 21.7132 24.3963 21.6952 24.3333 21.6772C24.2793 21.6592 24.2163 21.6412 24.1623 21.6232C24.1533 21.6232 24.1263 21.6052 24.1173 21.6052C24.1263 21.6052 24.1983 21.6412 24.1443 21.6142C24.1173 21.5962 24.0813 21.5872 24.0543 21.5692C23.8652 21.4702 23.6042 21.5152 23.4962 21.7132C23.3971 21.9023 23.4332 22.1633 23.6402 22.2713Z" fill="white"/>
<path d="M27.2497 19.0217C26.7726 19.0217 26.2685 18.8687 25.7734 18.4366C25.1433 17.8876 24.9093 17.0324 25.1523 16.1503C25.5664 14.656 27.1327 13.5309 29.347 13.1438C30.5352 12.9368 31.6064 12.9998 32.5335 13.3418C33.3526 13.6389 34.0368 14.161 34.4598 14.8001C34.9999 15.6192 35.0629 16.5554 34.6128 17.2485C33.6137 18.7787 31.9934 18.3916 31.0303 18.1666C30.6792 18.0856 30.3102 17.9956 30.1121 18.0136C29.8331 18.0496 29.482 18.2296 29.113 18.4276C28.6179 18.6707 27.9698 19.0217 27.2497 19.0217ZM26.8356 17.2035C27.1957 17.5185 27.4747 17.4465 28.3569 16.9784C28.8249 16.7354 29.347 16.4563 29.9321 16.3843C30.4182 16.3303 30.9223 16.4473 31.4083 16.5644C32.5335 16.8344 32.9296 16.8344 33.2536 16.3393C33.3256 16.2313 33.2986 15.9613 33.1006 15.6732C32.6595 14.9981 31.5074 14.395 29.6171 14.7281C27.7538 15.0521 26.8806 15.9253 26.7006 16.5734C26.6736 16.7354 26.6286 17.0234 26.8356 17.2035Z" fill="white"/>
<path d="M57.512 11.6H65.912C68.024 11.6 69.9173 12.08 71.592 13.04C73.2667 13.9893 74.5733 15.3173 75.512 17.024C76.4507 18.72 76.92 20.6453 76.92 22.8C76.92 24.9547 76.4507 26.8853 75.512 28.592C74.5733 30.288 73.2667 31.616 71.592 32.576C69.9173 33.5253 68.024 34 65.912 34H57.512V11.6ZM65.88 30.528C67.2667 30.528 68.4827 30.2133 69.528 29.584C70.584 28.9547 71.3947 28.0587 71.96 26.896C72.536 25.7227 72.824 24.3573 72.824 22.8C72.824 21.2427 72.536 19.8827 71.96 18.72C71.3947 17.5467 70.584 16.6453 69.528 16.016C68.4827 15.3867 67.2667 15.072 65.88 15.072H61.496V30.528H65.88ZM80.3483 17.616H84.0923V20.096C84.6043 19.2533 85.2496 18.6133 86.0283 18.176C86.8176 17.728 87.7136 17.504 88.7163 17.504H89.3243V21.312H88.2683C86.9883 21.312 85.9749 21.6587 85.2283 22.352C84.4923 23.0347 84.1243 23.968 84.1243 25.152V34H80.3483V17.616ZM99.4925 34.384C97.8712 34.384 96.4045 34.0107 95.0925 33.264C93.7805 32.5173 92.7512 31.4933 92.0045 30.192C91.2578 28.88 90.8845 27.4187 90.8845 25.808C90.8845 24.1973 91.2578 22.7413 92.0045 21.44C92.7512 20.128 93.7805 19.0987 95.0925 18.352C96.4045 17.6053 97.8712 17.232 99.4925 17.232C101.103 17.232 102.565 17.6053 103.877 18.352C105.189 19.0987 106.218 20.128 106.965 21.44C107.722 22.7413 108.101 24.1973 108.101 25.808C108.101 27.4187 107.722 28.88 106.965 30.192C106.218 31.4933 105.189 32.5173 103.877 33.264C102.565 34.0107 101.103 34.384 99.4925 34.384ZM99.4925 31.008C100.41 31.008 101.221 30.7893 101.925 30.352C102.639 29.9147 103.194 29.3013 103.589 28.512C103.983 27.7227 104.181 26.8213 104.181 25.808C104.181 24.7947 103.983 23.8933 103.589 23.104C103.194 22.304 102.639 21.6853 101.925 21.248C101.221 20.8107 100.41 20.592 99.4925 20.592C98.5752 20.592 97.7592 20.8107 97.0445 21.248C96.3405 21.6853 95.7912 22.304 95.3965 23.104C95.0018 23.8933 94.8045 24.7947 94.8045 25.808C94.8045 26.8213 95.0018 27.7227 95.3965 28.512C95.7912 29.3013 96.3405 29.9147 97.0445 30.352C97.7592 30.7893 98.5752 31.008 99.4925 31.008ZM111.38 17.616H115.156V34H111.38V17.616ZM111.252 11.6H115.284V15.264H111.252V11.6ZM131.584 31.568C130.997 32.464 130.224 33.1573 129.264 33.648C128.304 34.1387 127.216 34.384 126 34.384C124.549 34.384 123.248 34.0213 122.096 33.296C120.944 32.56 120.042 31.5413 119.392 30.24C118.741 28.9387 118.416 27.4613 118.416 25.808C118.416 24.1653 118.741 22.6933 119.392 21.392C120.042 20.08 120.938 19.0613 122.08 18.336C123.232 17.6 124.533 17.232 125.984 17.232C127.21 17.232 128.304 17.4773 129.264 17.968C130.224 18.4587 130.997 19.152 131.584 20.048V11.6H135.36V34H131.584V31.568ZM126.912 31.024C127.829 31.024 128.64 30.8053 129.344 30.368C130.058 29.9307 130.608 29.3173 130.992 28.528C131.386 27.7387 131.584 26.832 131.584 25.808C131.584 24.784 131.386 23.8773 130.992 23.088C130.608 22.2987 130.058 21.6853 129.344 21.248C128.64 20.8107 127.829 20.592 126.912 20.592C126.005 20.592 125.2 20.8107 124.496 21.248C123.802 21.6853 123.258 22.304 122.864 23.104C122.48 23.8933 122.288 24.7947 122.288 25.808C122.288 26.8213 122.48 27.728 122.864 28.528C123.258 29.3173 123.802 29.9307 124.496 30.368C125.2 30.8053 126.005 31.024 126.912 31.024ZM141.291 20.896H138.395V17.616H141.291V15.744C141.291 14.9333 141.483 14.2133 141.867 13.584C142.251 12.9547 142.784 12.4693 143.467 12.128C144.16 11.776 144.955 11.6 145.851 11.6H149.467V14.624H146.539C146.101 14.624 145.744 14.7627 145.467 15.04C145.2 15.3067 145.067 15.6587 145.067 16.096V17.616H149.339V20.896H145.067V34H141.291V20.896ZM159.208 34.384C157.608 34.384 156.163 34.016 154.872 33.28C153.582 32.544 152.568 31.5253 151.832 30.224C151.096 28.912 150.728 27.4293 150.728 25.776C150.728 24.1653 151.096 22.7093 151.832 21.408C152.579 20.1067 153.598 19.088 154.888 18.352C156.19 17.6053 157.63 17.232 159.208 17.232C160.83 17.232 162.27 17.5947 163.528 18.32C164.787 19.0453 165.763 20.0587 166.456 21.36C167.16 22.6613 167.512 24.1387 167.512 25.792V26.704H154.6C154.696 27.632 154.947 28.4427 155.352 29.136C155.768 29.8187 156.307 30.3467 156.968 30.72C157.63 31.0933 158.382 31.28 159.224 31.28C160.035 31.28 160.755 31.1253 161.384 30.816C162.024 30.5067 162.552 30.0693 162.968 29.504H167.032C166.435 31.0187 165.448 32.2133 164.072 33.088C162.696 33.952 161.075 34.384 159.208 34.384ZM163.624 24.192C163.379 22.9867 162.867 22.0427 162.088 21.36C161.31 20.6667 160.35 20.32 159.208 20.32C158.024 20.32 157.032 20.6667 156.232 21.36C155.432 22.0533 154.915 22.9973 154.68 24.192H163.624ZM176.818 34.384C175.474 34.384 174.279 34.176 173.234 33.76C172.188 33.3333 171.356 32.736 170.738 31.968C170.119 31.2 169.772 30.3093 169.698 29.296H173.474C173.57 29.9467 173.911 30.4587 174.498 30.832C175.095 31.1947 175.863 31.376 176.802 31.376C177.698 31.376 178.434 31.1947 179.01 30.832C179.586 30.4587 179.874 29.9627 179.874 29.344C179.874 28.896 179.714 28.512 179.394 28.192C179.084 27.872 178.668 27.6693 178.146 27.584L174.514 26.976C173.639 26.8373 172.876 26.5493 172.226 26.112C171.575 25.664 171.068 25.1093 170.706 24.448C170.354 23.7867 170.178 23.0613 170.178 22.272C170.178 21.3013 170.439 20.4373 170.962 19.68C171.484 18.912 172.226 18.3147 173.186 17.888C174.156 17.4507 175.271 17.232 176.53 17.232C177.767 17.232 178.876 17.4347 179.858 17.84C180.839 18.2453 181.623 18.8213 182.21 19.568C182.796 20.3147 183.127 21.1893 183.202 22.192H179.442C179.335 21.5733 179.015 21.0773 178.482 20.704C177.959 20.3307 177.308 20.144 176.53 20.144C175.719 20.144 175.063 20.3253 174.562 20.688C174.071 21.0507 173.826 21.5253 173.826 22.112C173.826 22.9547 174.444 23.488 175.682 23.712L179.282 24.336C180.146 24.4853 180.903 24.7947 181.554 25.264C182.204 25.7227 182.7 26.2933 183.042 26.976C183.394 27.6587 183.57 28.4 183.57 29.2C183.57 30.2027 183.271 31.0987 182.674 31.888C182.087 32.6667 181.282 33.28 180.258 33.728C179.234 34.1653 178.087 34.384 176.818 34.384ZM192.63 34C191.756 34 190.966 33.8133 190.262 33.44C189.569 33.0667 189.025 32.5493 188.63 31.888C188.246 31.2267 188.054 30.48 188.054 29.648L188.038 20.896H185.158L185.174 17.616H186.966C187.372 17.616 187.697 17.4933 187.942 17.248C188.188 16.992 188.31 16.6667 188.31 16.272V13.616H191.83V17.616H196.182L196.166 20.896H191.814L191.83 29.168C191.83 29.616 191.974 29.9893 192.262 30.288C192.561 30.576 192.934 30.72 193.382 30.72H196.166V34H192.63ZM207.676 30.736L216.796 22.608C217.575 21.9147 218.146 21.2267 218.508 20.544C218.882 19.8613 219.068 19.1467 219.068 18.4C219.068 17.664 218.908 17.0187 218.588 16.464C218.268 15.8987 217.815 15.4613 217.228 15.152C216.642 14.8427 215.964 14.688 215.196 14.688C214.386 14.688 213.66 14.8693 213.02 15.232C212.38 15.584 211.884 16.08 211.532 16.72C211.18 17.3493 211.004 18.064 211.004 18.864H207.084C207.084 17.4027 207.436 16.0907 208.14 14.928C208.844 13.7653 209.815 12.8587 211.052 12.208C212.3 11.5467 213.703 11.216 215.26 11.216C216.754 11.216 218.087 11.5147 219.26 12.112C220.444 12.6987 221.367 13.52 222.028 14.576C222.69 15.6213 223.02 16.8053 223.02 18.128C223.01 19.344 222.684 20.528 222.044 21.68C221.415 22.832 220.455 23.984 219.164 25.136L213.26 30.464H223.628V34H207.676V30.736ZM235.293 30.928C236.338 30.928 237.239 30.6027 237.997 29.952C238.765 29.3013 239.351 28.368 239.757 27.152C240.162 25.936 240.365 24.496 240.365 22.832C240.365 21.1467 240.162 19.696 239.757 18.48C239.351 17.2533 238.765 16.3147 237.997 15.664C237.239 15.0027 236.338 14.672 235.293 14.672C234.247 14.672 233.341 15.0027 232.573 15.664C231.815 16.3147 231.234 17.2533 230.829 18.48C230.423 19.696 230.221 21.136 230.221 22.8C230.221 24.464 230.423 25.9093 230.829 27.136C231.234 28.352 231.815 29.2907 232.573 29.952C233.341 30.6027 234.247 30.928 235.293 30.928ZM235.277 34.384C233.474 34.384 231.89 33.9093 230.525 32.96C229.159 32.0107 228.103 30.6667 227.357 28.928C226.621 27.1787 226.253 25.1467 226.253 22.832C226.253 20.5067 226.621 18.4693 227.357 16.72C228.103 14.96 229.159 13.6053 230.525 12.656C231.89 11.696 233.474 11.216 235.277 11.216C237.09 11.216 238.679 11.696 240.045 12.656C241.421 13.6053 242.482 14.96 243.229 16.72C243.975 18.4693 244.349 20.5067 244.349 22.832C244.349 25.1467 243.975 27.1787 243.229 28.928C242.482 30.6667 241.421 32.0107 240.045 32.96C238.679 33.9093 237.09 34.384 235.277 34.384ZM247.301 30.736L256.421 22.608C257.2 21.9147 257.771 21.2267 258.133 20.544C258.507 19.8613 258.693 19.1467 258.693 18.4C258.693 17.664 258.533 17.0187 258.213 16.464C257.893 15.8987 257.44 15.4613 256.853 15.152C256.267 14.8427 255.589 14.688 254.821 14.688C254.011 14.688 253.285 14.8693 252.645 15.232C252.005 15.584 251.509 16.08 251.157 16.72C250.805 17.3493 250.629 18.064 250.629 18.864H246.709C246.709 17.4027 247.061 16.0907 247.765 14.928C248.469 13.7653 249.44 12.8587 250.677 12.208C251.925 11.5467 253.328 11.216 254.885 11.216C256.379 11.216 257.712 11.5147 258.885 12.112C260.069 12.6987 260.992 13.52 261.653 14.576C262.315 15.6213 262.645 16.8053 262.645 18.128C262.635 19.344 262.309 20.528 261.669 21.68C261.04 22.832 260.08 23.984 258.789 25.136L252.885 30.464H263.253V34H247.301V30.736ZM274.339 34.384C272.931 34.384 271.63 34.1173 270.435 33.584C269.241 33.04 268.265 32.2987 267.507 31.36C266.75 30.4107 266.302 29.344 266.163 28.16H270.099C270.227 28.704 270.494 29.1947 270.899 29.632C271.305 30.0587 271.806 30.3947 272.403 30.64C273.001 30.8747 273.641 30.992 274.323 30.992C275.145 30.992 275.886 30.8 276.547 30.416C277.209 30.032 277.721 29.504 278.083 28.832C278.457 28.1493 278.643 27.3813 278.643 26.528C278.643 25.6747 278.457 24.9067 278.083 24.224C277.721 23.5413 277.209 23.008 276.547 22.624C275.886 22.24 275.145 22.048 274.323 22.048C273.459 22.048 272.681 22.2453 271.987 22.64C271.305 23.0347 270.809 23.5147 270.499 24.08H266.787L267.747 11.6H281.395V15.136H270.995L270.547 20.96C270.963 20.352 271.603 19.8613 272.467 19.488C273.331 19.104 274.259 18.912 275.251 18.912C276.649 18.912 277.902 19.2427 279.011 19.904C280.131 20.5547 281.006 21.4613 281.635 22.624C282.275 23.776 282.595 25.0613 282.595 26.48C282.595 27.9733 282.238 29.3227 281.523 30.528C280.809 31.7333 279.822 32.6773 278.563 33.36C277.315 34.0427 275.907 34.384 274.339 34.384Z" fill="white"/>
</svg>
